<svg xmlns="http://www.w3.org/2000/svg" viewBox="0 0 520 520" role="img" aria-label="Rosone a otto elementi identici attorno a un centro: nessun lato e marcato">
  <rect width="520" height="520" fill="#ECE7DB"/>
  <circle cx="450.0" cy="260.0" r="26" fill="none" stroke="#547CA8" stroke-width="1.4"/>
  <circle cx="394.4" cy="394.4" r="26" fill="none" stroke="#547CA8" stroke-width="1.4"/>
  <circle cx="260.0" cy="450.0" r="26" fill="none" stroke="#547CA8" stroke-width="1.4"/>
  <circle cx="125.6" cy="394.4" r="26" fill="none" stroke="#547CA8" stroke-width="1.4"/>
  <circle cx="70.0" cy="260.0" r="26" fill="none" stroke="#547CA8" stroke-width="1.4"/>
  <circle cx="125.6" cy="125.6" r="26" fill="none" stroke="#547CA8" stroke-width="1.4"/>
  <circle cx="260.0" cy="70.0" r="26" fill="none" stroke="#547CA8" stroke-width="1.4"/>
  <circle cx="394.4" cy="125.6" r="26" fill="none" stroke="#547CA8" stroke-width="1.4"/>
  <circle cx="389.3" cy="313.6" r="21" fill="none" stroke="#547CA8" stroke-width="1.4"/>
  <circle cx="313.6" cy="389.3" r="21" fill="none" stroke="#547CA8" stroke-width="1.4"/>
  <circle cx="206.4" cy="389.3" r="21" fill="none" stroke="#547CA8" stroke-width="1.4"/>
  <circle cx="130.7" cy="313.6" r="21" fill="none" stroke="#547CA8" stroke-width="1.4"/>
  <circle cx="130.7" cy="206.4" r="21" fill="none" stroke="#547CA8" stroke-width="1.4"/>
  <circle cx="206.4" cy="130.7" r="21" fill="none" stroke="#547CA8" stroke-width="1.4"/>
  <circle cx="313.6" cy="130.7" r="21" fill="none" stroke="#547CA8" stroke-width="1.4"/>
  <circle cx="389.3" cy="206.4" r="21" fill="none" stroke="#547CA8" stroke-width="1.4"/>
  <circle cx="352.0" cy="260.0" r="16" fill="none" stroke="#547CA8" stroke-width="1.4"/>
  <circle cx="325.1" cy="325.1" r="16" fill="none" stroke="#547CA8" stroke-width="1.4"/>
  <circle cx="260.0" cy="352.0" r="16" fill="none" stroke="#547CA8" stroke-width="1.4"/>
  <circle cx="194.9" cy="325.1" r="16" fill="none" stroke="#547CA8" stroke-width="1.4"/>
  <circle cx="168.0" cy="260.0" r="16" fill="none" stroke="#547CA8" stroke-width="1.4"/>
  <circle cx="194.9" cy="194.9" r="16" fill="none" stroke="#547CA8" stroke-width="1.4"/>
  <circle cx="260.0" cy="168.0" r="16" fill="none" stroke="#547CA8" stroke-width="1.4"/>
  <circle cx="325.1" cy="194.9" r="16" fill="none" stroke="#547CA8" stroke-width="1.4"/>
  <circle cx="260.0" cy="260.0" r="196" fill="none" stroke="#547CA8" stroke-width="1.4" opacity=".5"/>
  <line x1="306.0" y1="260.0" x2="446.0" y2="260.0" stroke="#547CA8" stroke-width="1" opacity=".45"/>
  <line x1="292.5" y1="292.5" x2="391.5" y2="391.5" stroke="#547CA8" stroke-width="1" opacity=".45"/>
  <line x1="260.0" y1="306.0" x2="260.0" y2="446.0" stroke="#547CA8" stroke-width="1" opacity=".45"/>
  <line x1="227.5" y1="292.5" x2="128.5" y2="391.5" stroke="#547CA8" stroke-width="1" opacity=".45"/>
  <line x1="214.0" y1="260.0" x2="74.0" y2="260.0" stroke="#547CA8" stroke-width="1" opacity=".45"/>
  <line x1="227.5" y1="227.5" x2="128.5" y2="128.5" stroke="#547CA8" stroke-width="1" opacity=".45"/>
  <line x1="260.0" y1="214.0" x2="260.0" y2="74.0" stroke="#547CA8" stroke-width="1" opacity=".45"/>
  <line x1="292.5" y1="227.5" x2="391.5" y2="128.5" stroke="#547CA8" stroke-width="1" opacity=".45"/>
  <circle cx="260.0" cy="260.0" r="36" fill="none" stroke="#547CA8" stroke-width="1.4"/>
</svg>