<svg xmlns="http://www.w3.org/2000/svg" viewBox="0 0 1200 630" role="img" aria-label="Illusione coniglio-papera: la stessa figura, due letture, e la liberta di scegliere quale vedere">
<rect width="1200" height="630" fill="#16150F"/>
<circle cx="600" cy="315" r="300" fill="none" stroke="#26231C" stroke-width="2"/>
<circle cx="600" cy="315" r="360" fill="none" stroke="#221F19" stroke-width="2"/>
<path d="M 700.0,208.0 L 695.1,208.0 L 690.0,208.0 L 684.6,208.1 L 679.0,208.1 L 673.2,208.2 L 667.2,208.3 L 661.1,208.4 L 654.9,208.5 L 648.6,208.7 L 642.2,208.8 L 635.7,209.0 L 629.2,209.2 L 622.8,209.5 L 616.4,209.8 L 610.0,210.1 L 603.8,210.4 L 597.6,210.7 L 591.6,211.1 L 585.8,211.5 L 580.1,211.9 L 574.7,212.4 L 569.5,212.9 L 564.6,213.4 L 560.0,214.0 L 555.7,214.6 L 551.7,215.3 L 548.0,216.0 L 544.5,216.7 L 541.3,217.5 L 538.3,218.4 L 535.4,219.2 L 532.7,220.1 L 530.1,221.1 L 527.5,222.0 L 525.1,223.0 L 522.6,224.0 L 520.2,225.0 L 517.7,226.0 L 515.2,227.0 L 512.7,228.1 L 510.0,229.1 L 507.2,230.1 L 504.2,231.1 L 501.0,232.1 L 497.7,233.1 L 494.1,234.1 L 490.2,235.1 L 486.0,236.0 L 481.4,236.9 L 476.2,237.8 L 470.5,238.6 L 464.3,239.4 L 457.8,240.2 L 451.0,240.9 L 444.0,241.7 L 436.7,242.4 L 429.4,243.2 L 422.1,244.0 L 414.7,244.7 L 407.5,245.5 L 400.4,246.3 L 393.6,247.1 L 387.0,248.0 L 380.8,248.9 L 375.0,249.8 L 369.8,250.8 L 365.0,251.8 L 360.9,252.9 L 357.5,254.1 L 354.8,255.3 L 353.0,256.6 L 352.0,258.0 L 352.1,259.5 L 353.3,261.0 L 355.6,262.6 L 358.7,264.3 L 362.7,266.1 L 367.4,267.9 L 372.7,269.8 L 378.6,271.7 L 384.9,273.7 L 391.5,275.7 L 398.3,277.7 L 405.2,279.8 L 412.2,281.8 L 419.1,283.9 L 425.8,286.0 L 432.3,288.1 L 438.4,290.2 L 444.0,292.2 L 449.0,294.3 L 453.3,296.3 L 456.9,298.3 L 459.6,300.2 L 461.3,302.1 L 462.0,304.0 L 461.5,305.8 L 459.9,307.7 L 457.4,309.6 L 454.0,311.4 L 449.8,313.3 L 444.9,315.2 L 439.5,317.0 L 433.6,318.9 L 427.3,320.7 L 420.7,322.6 L 413.9,324.4 L 407.1,326.2 L 400.3,328.1 L 393.7,329.8 L 387.2,331.6 L 381.1,333.3 L 375.4,335.0 L 370.3,336.7 L 365.7,338.4 L 361.9,340.0 L 359.0,341.5 L 356.9,343.1 L 355.9,344.6 L 356.0,346.0 L 357.1,347.4 L 359.1,348.7 L 361.8,350.0 L 365.2,351.2 L 369.2,352.4 L 373.9,353.6 L 379.1,354.7 L 384.7,355.8 L 390.8,356.8 L 397.3,357.9 L 404.1,358.9 L 411.1,359.9 L 418.4,360.9 L 425.8,361.8 L 433.3,362.8 L 440.8,363.8 L 448.3,364.8 L 455.8,365.7 L 463.1,366.7 L 470.3,367.7 L 477.2,368.8 L 483.8,369.8 L 490.1,370.9 L 496.0,372.0 L 501.7,373.2 L 507.3,374.4 L 513.0,375.6 L 518.6,376.9 L 524.2,378.3 L 529.8,379.6 L 535.4,381.0 L 541.0,382.4 L 546.6,383.8 L 552.2,385.1 L 557.7,386.5 L 563.2,387.9 L 568.8,389.2 L 574.3,390.5 L 579.7,391.8 L 585.2,393.0 L 590.6,394.1 L 596.0,395.2 L 601.4,396.2 L 606.8,397.2 L 612.1,398.0 L 617.4,398.8 L 622.7,399.4 L 628.0,400.0 L 633.3,400.5 L 638.5,400.9 L 643.8,401.2 L 649.0,401.5 L 654.3,401.7 L 659.5,401.8 L 664.8,401.9 L 670.0,401.9 L 675.2,401.9 L 680.4,401.8 L 685.5,401.7 L 690.6,401.5 L 695.7,401.3 L 700.7,401.0 L 705.7,400.7 L 710.7,400.3 L 715.6,399.9 L 720.4,399.4 L 725.2,398.9 L 729.9,398.4 L 734.5,397.9 L 739.1,397.3 L 743.6,396.7 L 748.0,396.0 L 752.4,395.3 L 756.7,394.6 L 761.0,393.8 L 765.3,393.0 L 769.5,392.1 L 773.7,391.2 L 777.9,390.3 L 782.0,389.3 L 786.1,388.2 L 790.1,387.1 L 794.0,386.0 L 797.9,384.9 L 801.7,383.7 L 805.4,382.4 L 809.1,381.2 L 812.7,379.9 L 816.2,378.5 L 819.6,377.1 L 822.9,375.7 L 826.1,374.2 L 829.3,372.7 L 832.3,371.2 L 835.2,369.6 L 838.0,368.0 L 840.7,366.4 L 843.4,364.7 L 846.0,362.9 L 848.5,361.1 L 850.9,359.3 L 853.3,357.5 L 855.6,355.6 L 857.8,353.6 L 859.9,351.7 L 861.9,349.6 L 863.9,347.6 L 865.8,345.5 L 867.5,343.4 L 869.2,341.2 L 870.8,339.0 L 872.2,336.8 L 873.6,334.6 L 874.8,332.3 L 876.0,330.0 L 877.0,327.6 L 877.9,325.3 L 878.8,322.9 L 879.4,320.4 L 880.0,318.0 L 880.4,315.5 L 880.8,312.9 L 881.0,310.1 L 881.1,307.3 L 881.2,304.5 L 881.1,301.5 L 880.9,298.5 L 880.6,295.5 L 880.2,292.4 L 879.7,289.3 L 879.1,286.2 L 878.4,283.1 L 877.6,280.0 L 876.6,277.0 L 875.6,273.9 L 874.5,271.0 L 873.3,268.0 L 872.0,265.2 L 870.6,262.4 L 869.1,259.7 L 867.4,257.1 L 865.7,254.6 L 863.9,252.2 L 862.0,250.0 L 860.0,247.9 L 857.7,245.8 L 855.3,243.8 L 852.8,241.8 L 850.1,239.9 L 847.3,238.0 L 844.4,236.3 L 841.3,234.5 L 838.2,232.8 L 835.0,231.2 L 831.6,229.6 L 828.2,228.1 L 824.8,226.7 L 821.3,225.3 L 817.8,223.9 L 814.2,222.6 L 810.6,221.3 L 807.1,220.1 L 803.5,219.0 L 799.9,217.9 L 796.4,216.8 L 792.9,215.8 L 789.4,214.9 L 786.0,214.0 L 782.7,213.2 L 779.4,212.4 L 776.1,211.7 L 772.9,211.1 L 769.7,210.6 L 766.5,210.1 L 763.3,209.7 L 760.1,209.3 L 756.9,209.0 L 753.6,208.8 L 750.3,208.6 L 747.0,208.4 L 743.6,208.2 L 740.2,208.1 L 736.6,208.1 L 733.0,208.0 L 729.3,208.0 L 725.5,208.0 L 721.6,208.0 L 717.6,208.0 L 713.4,208.0 L 709.1,208.0 L 704.6,208.0 Z" fill="none" stroke="#ECE7DB" stroke-width="8" stroke-linejoin="round" stroke-linecap="round"/>
<circle cx="730" cy="264" r="11" fill="#ECE7DB"/><circle cx="730" cy="264" r="4" fill="#16150F"/>
</svg>