<svg viewBox="0 0 760 230" width="100%" height="auto" xmlns="http://www.w3.org/2000/svg" role="img" aria-label="Due nastri speculari che si incontrano al centro">
<line x1="26" y1="115.0" x2="734" y2="115.0" stroke="#2A2620" stroke-width="1"/>
<path d="M 20.0,116.1 L 22.8,116.4 L 25.5,116.6 L 28.3,116.8 L 31.0,117.0 L 33.8,117.2 L 36.5,117.5 L 39.2,117.7 L 42.0,118.0 L 44.7,118.4 L 47.4,118.7 L 50.2,119.1 L 52.9,119.5 L 55.6,119.9 L 58.4,120.3 L 61.1,120.8 L 63.8,121.3 L 66.6,121.9 L 69.3,122.4 L 72.0,123.0 L 74.7,123.6 L 77.5,124.2 L 80.2,124.9 L 82.9,125.6 L 85.6,126.3 L 88.4,127.0 L 91.1,127.7 L 93.8,128.5 L 96.5,129.3 L 99.3,130.1 L 102.0,130.9 L 104.7,131.7 L 107.5,132.6 L 110.2,133.4 L 112.9,134.3 L 115.7,135.2 L 118.4,136.1 L 121.1,137.0 L 123.9,137.9 L 126.6,138.9 L 129.4,139.8 L 132.1,140.7 L 134.9,141.7 L 137.6,142.6 L 140.4,143.6 L 143.1,144.5 L 145.9,145.4 L 148.7,146.4 L 151.4,147.3 L 154.2,148.2 L 157.0,149.1 L 159.7,150.0 L 162.5,150.9 L 165.3,151.8 L 168.1,152.7 L 170.9,153.5 L 173.7,154.4 L 176.4,155.2 L 179.2,156.0 L 182.0,156.8 L 184.8,157.5 L 187.6,158.2 L 190.4,158.9 L 193.3,159.6 L 196.1,160.3 L 198.9,160.9 L 201.7,161.5 L 204.5,162.1 L 207.4,162.6 L 210.2,163.1 L 213.0,163.6 L 215.9,164.0 L 218.7,164.4 L 221.6,164.7 L 224.4,165.0 L 227.3,165.3 L 230.1,165.6 L 233.0,165.8 L 235.8,165.9 L 238.7,166.0 L 241.5,166.1 L 244.4,166.1 L 247.3,166.1 L 250.1,166.0 L 253.0,165.9 L 255.9,165.8 L 258.7,165.6 L 261.6,165.4 L 264.5,165.1 L 267.3,164.7 L 270.2,164.4 L 273.1,164.0 L 276.0,163.5 L 278.8,163.0 L 281.7,162.4 L 284.6,161.9 L 287.4,161.2 L 290.3,160.5 L 293.1,159.8 L 296.0,159.1 L 298.9,158.3 L 301.7,157.4 L 304.6,156.6 L 307.4,155.7 L 310.3,154.7 L 313.1,153.7 L 315.9,152.7 L 318.8,151.6 L 321.6,150.6 L 324.4,149.4 L 327.3,148.3 L 330.1,147.1 L 332.9,145.9 L 335.8,144.7 L 338.6,143.4 L 341.4,142.2 L 344.2,140.9 L 347.0,139.5 L 349.8,138.2 L 352.6,136.8 L 355.4,135.5 L 358.2,134.1 L 361.0,132.7 L 363.8,131.3 L 366.6,129.9 L 369.4,128.4 L 372.2,127.0 L 374.9,125.5 L 377.7,124.1 L 380.5,122.7 L 383.2,121.2 L 386.0,119.8 L 388.8,118.3 L 391.5,116.9 L 394.3,115.4 L 397.0,114.0 L 399.8,112.6 L 402.5,111.2 L 405.3,109.8 L 408.0,108.4 L 410.8,107.0 L 413.5,105.7 L 416.2,104.3 L 419.0,103.0 L 421.7,101.7 L 424.4,100.4 L 427.1,99.2 L 429.9,97.9 L 432.6,96.7 L 435.3,95.6 L 438.0,94.4 L 440.7,93.3 L 443.4,92.2 L 446.1,91.1 L 448.8,90.1 L 451.5,89.1 L 454.2,88.1 L 456.9,87.2 L 459.6,86.3 L 462.2,85.5 L 464.9,84.6 L 467.6,83.9 L 470.3,83.1 L 473.0,82.4 L 475.6,81.7 L 478.3,81.1 L 481.0,80.5 L 483.7,79.9 L 486.3,79.4 L 489.0,79.0 L 491.7,78.5 L 494.3,78.1 L 497.0,77.8 L 499.7,77.5 L 502.3,77.2 L 505.0,77.0 L 507.7,76.8 L 510.3,76.6 L 513.0,76.5 L 515.7,76.4 L 518.4,76.4 L 521.1,76.4 L 523.7,76.5 L 526.4,76.5 L 529.1,76.7 L 531.8,76.8 L 534.5,77.0 L 537.2,77.3 L 539.9,77.5 L 542.6,77.8 L 545.3,78.2 L 548.0,78.5 L 550.7,78.9 L 553.4,79.4 L 556.1,79.8 L 558.8,80.3 L 561.6,80.9 L 564.3,81.4 L 567.0,82.0 L 569.7,82.6 L 572.5,83.2 L 575.2,83.9 L 578.0,84.5 L 580.7,85.2 L 583.5,86.0 L 586.2,86.7 L 589.0,87.4 L 591.7,88.2 L 594.5,89.0 L 597.3,89.8 L 600.0,90.6 L 602.8,91.4 L 605.6,92.2 L 608.3,93.0 L 611.1,93.9 L 613.9,94.7 L 616.7,95.5 L 619.5,96.4 L 622.3,97.2 L 625.1,98.1 L 627.8,98.9 L 630.6,99.7 L 633.4,100.5 L 636.2,101.4 L 639.0,102.2 L 641.8,103.0 L 644.6,103.7 L 647.4,104.5 L 650.3,105.3 L 653.1,106.0 L 655.9,106.7 L 658.7,107.5 L 661.5,108.1 L 664.3,108.8 L 667.1,109.5 L 669.9,110.1 L 672.7,110.7 L 675.5,111.3 L 678.4,111.8 L 681.2,112.3 L 684.0,112.8 L 686.8,113.3 L 689.6,113.7 L 692.4,114.2 L 695.2,114.5 L 698.0,114.9 L 700.9,115.2 L 703.7,115.5 L 706.5,115.8 L 709.3,116.0 L 712.1,116.2 L 714.9,116.3 L 717.7,116.5 L 720.5,116.6 L 723.3,116.6 L 726.1,116.7 L 728.9,116.6 L 731.7,116.6 L 734.4,116.5 L 737.2,116.4 L 740.0,116.1 L 740.0,113.9 L 737.2,113.6 L 734.5,113.4 L 731.7,113.2 L 729.0,113.0 L 726.2,112.8 L 723.5,112.5 L 720.7,112.3 L 718.0,112.0 L 715.3,111.6 L 712.5,111.3 L 709.8,110.9 L 707.1,110.5 L 704.3,110.1 L 701.6,109.6 L 698.9,109.2 L 696.1,108.7 L 693.4,108.1 L 690.7,107.6 L 688.0,107.0 L 685.2,106.4 L 682.5,105.8 L 679.8,105.1 L 677.1,104.4 L 674.3,103.7 L 671.6,103.0 L 668.9,102.3 L 666.2,101.5 L 663.4,100.7 L 660.7,99.9 L 658.0,99.1 L 655.2,98.3 L 652.5,97.4 L 649.8,96.6 L 647.0,95.7 L 644.3,94.8 L 641.6,93.9 L 638.8,93.0 L 636.1,92.1 L 633.4,91.1 L 630.6,90.2 L 627.9,89.3 L 625.1,88.3 L 622.4,87.4 L 619.6,86.4 L 616.9,85.5 L 614.1,84.6 L 611.3,83.6 L 608.6,82.7 L 605.8,81.8 L 603.0,80.9 L 600.3,80.0 L 597.5,79.1 L 594.7,78.2 L 591.9,77.3 L 589.2,76.5 L 586.4,75.6 L 583.6,74.8 L 580.8,74.0 L 578.0,73.3 L 575.2,72.5 L 572.4,71.8 L 569.6,71.1 L 566.8,70.4 L 564.0,69.7 L 561.2,69.1 L 558.3,68.5 L 555.5,68.0 L 552.7,67.4 L 549.9,66.9 L 547.0,66.5 L 544.2,66.0 L 541.4,65.6 L 538.5,65.3 L 535.7,65.0 L 532.8,64.7 L 530.0,64.4 L 527.1,64.3 L 524.3,64.1 L 521.4,64.0 L 518.6,63.9 L 515.7,63.9 L 512.8,63.9 L 510.0,64.0 L 507.1,64.1 L 504.2,64.2 L 501.4,64.4 L 498.5,64.6 L 495.6,64.9 L 492.7,65.2 L 489.9,65.6 L 487.0,66.0 L 484.1,66.5 L 481.3,67.0 L 478.4,67.5 L 475.5,68.1 L 472.7,68.8 L 469.8,69.4 L 466.9,70.1 L 464.1,70.9 L 461.2,71.7 L 458.4,72.5 L 455.5,73.4 L 452.7,74.3 L 449.8,75.3 L 447.0,76.3 L 444.1,77.3 L 441.3,78.3 L 438.4,79.4 L 435.6,80.5 L 432.8,81.7 L 429.9,82.9 L 427.1,84.1 L 424.3,85.3 L 421.5,86.5 L 418.7,87.8 L 415.8,89.1 L 413.0,90.4 L 410.2,91.8 L 407.4,93.1 L 404.6,94.5 L 401.8,95.9 L 399.0,97.3 L 396.2,98.7 L 393.4,100.1 L 390.6,101.6 L 387.9,103.0 L 385.1,104.4 L 382.3,105.9 L 379.5,107.3 L 376.8,108.8 L 374.0,110.2 L 371.2,111.7 L 368.5,113.1 L 365.7,114.6 L 362.9,116.0 L 360.2,117.4 L 357.4,118.8 L 354.7,120.2 L 351.9,121.6 L 349.2,123.0 L 346.5,124.4 L 343.7,125.7 L 341.0,127.0 L 338.3,128.3 L 335.5,129.6 L 332.8,130.8 L 330.1,132.1 L 327.4,133.3 L 324.7,134.5 L 322.0,135.6 L 319.2,136.7 L 316.5,137.8 L 313.8,138.9 L 311.1,139.9 L 308.4,140.9 L 305.7,141.9 L 303.1,142.8 L 300.4,143.7 L 297.7,144.6 L 295.0,145.4 L 292.3,146.2 L 289.6,146.9 L 287.0,147.6 L 284.3,148.3 L 281.6,148.9 L 278.9,149.5 L 276.3,150.1 L 273.6,150.6 L 270.9,151.1 L 268.2,151.5 L 265.6,151.9 L 262.9,152.2 L 260.2,152.5 L 257.6,152.8 L 254.9,153.0 L 252.2,153.2 L 249.6,153.4 L 246.9,153.5 L 244.2,153.6 L 241.5,153.6 L 238.9,153.6 L 236.2,153.5 L 233.5,153.4 L 230.8,153.3 L 228.1,153.2 L 225.4,153.0 L 222.7,152.7 L 220.1,152.5 L 217.4,152.2 L 214.7,151.8 L 212.0,151.5 L 209.2,151.0 L 206.5,150.6 L 203.8,150.1 L 201.1,149.7 L 198.4,149.1 L 195.7,148.6 L 192.9,148.0 L 190.2,147.4 L 187.5,146.8 L 184.7,146.1 L 182.0,145.4 L 179.3,144.7 L 176.5,144.0 L 173.8,143.3 L 171.0,142.6 L 168.2,141.8 L 165.5,141.0 L 162.7,140.2 L 160.0,139.4 L 157.2,138.6 L 154.4,137.8 L 151.6,137.0 L 148.9,136.1 L 146.1,135.3 L 143.3,134.5 L 140.5,133.6 L 137.7,132.8 L 134.9,131.9 L 132.2,131.1 L 129.4,130.3 L 126.6,129.5 L 123.8,128.6 L 121.0,127.8 L 118.2,127.0 L 115.4,126.3 L 112.6,125.5 L 109.8,124.7 L 107.0,124.0 L 104.2,123.3 L 101.3,122.6 L 98.5,121.9 L 95.7,121.2 L 92.9,120.5 L 90.1,119.9 L 87.3,119.3 L 84.5,118.7 L 81.7,118.2 L 78.9,117.7 L 76.0,117.2 L 73.2,116.7 L 70.4,116.3 L 67.6,115.8 L 64.8,115.5 L 62.0,115.1 L 59.2,114.8 L 56.4,114.5 L 53.6,114.2 L 50.7,114.0 L 47.9,113.8 L 45.1,113.7 L 42.3,113.5 L 39.5,113.4 L 36.7,113.4 L 33.9,113.3 L 31.1,113.4 L 28.4,113.4 L 25.6,113.5 L 22.8,113.6 L 20.0,113.9 Z" fill="#D98A2B" opacity="0.94"/>
<path d="M 20.0,116.1 L 22.8,116.4 L 25.6,116.5 L 28.4,116.6 L 31.1,116.6 L 33.9,116.7 L 36.7,116.6 L 39.5,116.6 L 42.3,116.5 L 45.1,116.3 L 47.9,116.2 L 50.7,116.0 L 53.6,115.8 L 56.4,115.5 L 59.2,115.2 L 62.0,114.9 L 64.8,114.5 L 67.6,114.2 L 70.4,113.7 L 73.2,113.3 L 76.0,112.8 L 78.9,112.3 L 81.7,111.8 L 84.5,111.3 L 87.3,110.7 L 90.1,110.1 L 92.9,109.5 L 95.7,108.8 L 98.5,108.1 L 101.3,107.4 L 104.2,106.7 L 107.0,106.0 L 109.8,105.3 L 112.6,104.5 L 115.4,103.7 L 118.2,103.0 L 121.0,102.2 L 123.8,101.4 L 126.6,100.5 L 129.4,99.7 L 132.2,98.9 L 134.9,98.1 L 137.7,97.2 L 140.5,96.4 L 143.3,95.5 L 146.1,94.7 L 148.9,93.9 L 151.6,93.0 L 154.4,92.2 L 157.2,91.4 L 160.0,90.6 L 162.7,89.8 L 165.5,89.0 L 168.2,88.2 L 171.0,87.4 L 173.8,86.7 L 176.5,86.0 L 179.3,85.3 L 182.0,84.6 L 184.7,83.9 L 187.5,83.2 L 190.2,82.6 L 192.9,82.0 L 195.7,81.4 L 198.4,80.9 L 201.1,80.3 L 203.8,79.9 L 206.5,79.4 L 209.2,79.0 L 212.0,78.5 L 214.7,78.2 L 217.4,77.8 L 220.1,77.5 L 222.7,77.3 L 225.4,77.0 L 228.1,76.8 L 230.8,76.7 L 233.5,76.6 L 236.2,76.5 L 238.9,76.4 L 241.5,76.4 L 244.2,76.4 L 246.9,76.5 L 249.6,76.6 L 252.2,76.8 L 254.9,77.0 L 257.6,77.2 L 260.2,77.5 L 262.9,77.8 L 265.6,78.1 L 268.2,78.5 L 270.9,78.9 L 273.6,79.4 L 276.3,79.9 L 278.9,80.5 L 281.6,81.1 L 284.3,81.7 L 287.0,82.4 L 289.6,83.1 L 292.3,83.8 L 295.0,84.6 L 297.7,85.4 L 300.4,86.3 L 303.1,87.2 L 305.7,88.1 L 308.4,89.1 L 311.1,90.1 L 313.8,91.1 L 316.5,92.2 L 319.2,93.3 L 322.0,94.4 L 324.7,95.5 L 327.4,96.7 L 330.1,97.9 L 332.8,99.2 L 335.5,100.4 L 338.3,101.7 L 341.0,103.0 L 343.7,104.3 L 346.5,105.6 L 349.2,107.0 L 351.9,108.4 L 354.7,109.8 L 357.4,111.2 L 360.2,112.6 L 362.9,114.0 L 365.7,115.4 L 368.5,116.9 L 371.2,118.3 L 374.0,119.8 L 376.8,121.2 L 379.5,122.7 L 382.3,124.1 L 385.1,125.6 L 387.9,127.0 L 390.6,128.4 L 393.4,129.9 L 396.2,131.3 L 399.0,132.7 L 401.8,134.1 L 404.6,135.5 L 407.4,136.9 L 410.2,138.2 L 413.0,139.6 L 415.8,140.9 L 418.7,142.2 L 421.5,143.5 L 424.3,144.7 L 427.1,145.9 L 429.9,147.1 L 432.8,148.3 L 435.6,149.5 L 438.4,150.6 L 441.3,151.7 L 444.1,152.7 L 447.0,153.7 L 449.8,154.7 L 452.7,155.7 L 455.5,156.6 L 458.4,157.5 L 461.2,158.3 L 464.1,159.1 L 466.9,159.9 L 469.8,160.6 L 472.7,161.2 L 475.5,161.9 L 478.4,162.5 L 481.3,163.0 L 484.1,163.5 L 487.0,164.0 L 489.9,164.4 L 492.7,164.8 L 495.6,165.1 L 498.5,165.4 L 501.4,165.6 L 504.2,165.8 L 507.1,165.9 L 510.0,166.0 L 512.8,166.1 L 515.7,166.1 L 518.6,166.1 L 521.4,166.0 L 524.3,165.9 L 527.1,165.7 L 530.0,165.6 L 532.8,165.3 L 535.7,165.0 L 538.5,164.7 L 541.4,164.4 L 544.2,164.0 L 547.0,163.5 L 549.9,163.1 L 552.7,162.6 L 555.5,162.0 L 558.3,161.5 L 561.2,160.9 L 564.0,160.3 L 566.8,159.6 L 569.6,158.9 L 572.4,158.2 L 575.2,157.5 L 578.0,156.7 L 580.8,156.0 L 583.6,155.2 L 586.4,154.4 L 589.2,153.5 L 591.9,152.7 L 594.7,151.8 L 597.5,150.9 L 600.3,150.0 L 603.0,149.1 L 605.8,148.2 L 608.6,147.3 L 611.3,146.4 L 614.1,145.4 L 616.9,144.5 L 619.6,143.6 L 622.4,142.6 L 625.1,141.7 L 627.9,140.7 L 630.6,139.8 L 633.4,138.9 L 636.1,137.9 L 638.8,137.0 L 641.6,136.1 L 644.3,135.2 L 647.0,134.3 L 649.8,133.4 L 652.5,132.6 L 655.2,131.7 L 658.0,130.9 L 660.7,130.1 L 663.4,129.3 L 666.2,128.5 L 668.9,127.7 L 671.6,127.0 L 674.3,126.3 L 677.1,125.6 L 679.8,124.9 L 682.5,124.2 L 685.2,123.6 L 688.0,123.0 L 690.7,122.4 L 693.4,121.9 L 696.1,121.3 L 698.9,120.8 L 701.6,120.4 L 704.3,119.9 L 707.1,119.5 L 709.8,119.1 L 712.5,118.7 L 715.3,118.4 L 718.0,118.0 L 720.7,117.7 L 723.5,117.5 L 726.2,117.2 L 729.0,117.0 L 731.7,116.8 L 734.5,116.6 L 737.2,116.4 L 740.0,116.1 L 740.0,113.9 L 737.2,113.6 L 734.4,113.5 L 731.7,113.4 L 728.9,113.4 L 726.1,113.3 L 723.3,113.4 L 720.5,113.4 L 717.7,113.5 L 714.9,113.7 L 712.1,113.8 L 709.3,114.0 L 706.5,114.2 L 703.7,114.5 L 700.9,114.8 L 698.0,115.1 L 695.2,115.5 L 692.4,115.8 L 689.6,116.3 L 686.8,116.7 L 684.0,117.2 L 681.2,117.7 L 678.4,118.2 L 675.5,118.7 L 672.7,119.3 L 669.9,119.9 L 667.1,120.5 L 664.3,121.2 L 661.5,121.9 L 658.7,122.5 L 655.9,123.3 L 653.1,124.0 L 650.3,124.7 L 647.4,125.5 L 644.6,126.3 L 641.8,127.0 L 639.0,127.8 L 636.2,128.6 L 633.4,129.5 L 630.6,130.3 L 627.8,131.1 L 625.1,131.9 L 622.3,132.8 L 619.5,133.6 L 616.7,134.5 L 613.9,135.3 L 611.1,136.1 L 608.3,137.0 L 605.6,137.8 L 602.8,138.6 L 600.0,139.4 L 597.3,140.2 L 594.5,141.0 L 591.7,141.8 L 589.0,142.6 L 586.2,143.3 L 583.5,144.0 L 580.7,144.8 L 578.0,145.5 L 575.2,146.1 L 572.5,146.8 L 569.7,147.4 L 567.0,148.0 L 564.3,148.6 L 561.6,149.1 L 558.8,149.7 L 556.1,150.2 L 553.4,150.6 L 550.7,151.1 L 548.0,151.5 L 545.3,151.8 L 542.6,152.2 L 539.9,152.5 L 537.2,152.7 L 534.5,153.0 L 531.8,153.2 L 529.1,153.3 L 526.4,153.5 L 523.7,153.5 L 521.1,153.6 L 518.4,153.6 L 515.7,153.6 L 513.0,153.5 L 510.3,153.4 L 507.7,153.2 L 505.0,153.0 L 502.3,152.8 L 499.7,152.5 L 497.0,152.2 L 494.3,151.9 L 491.7,151.5 L 489.0,151.0 L 486.3,150.6 L 483.7,150.1 L 481.0,149.5 L 478.3,148.9 L 475.6,148.3 L 473.0,147.6 L 470.3,146.9 L 467.6,146.1 L 464.9,145.4 L 462.2,144.5 L 459.6,143.7 L 456.9,142.8 L 454.2,141.9 L 451.5,140.9 L 448.8,139.9 L 446.1,138.9 L 443.4,137.8 L 440.7,136.7 L 438.0,135.6 L 435.3,134.4 L 432.6,133.3 L 429.9,132.1 L 427.1,130.8 L 424.4,129.6 L 421.7,128.3 L 419.0,127.0 L 416.2,125.7 L 413.5,124.3 L 410.8,123.0 L 408.0,121.6 L 405.3,120.2 L 402.5,118.8 L 399.8,117.4 L 397.0,116.0 L 394.3,114.6 L 391.5,113.1 L 388.8,111.7 L 386.0,110.2 L 383.2,108.8 L 380.5,107.3 L 377.7,105.9 L 374.9,104.5 L 372.2,103.0 L 369.4,101.6 L 366.6,100.1 L 363.8,98.7 L 361.0,97.3 L 358.2,95.9 L 355.4,94.5 L 352.6,93.2 L 349.8,91.8 L 347.0,90.5 L 344.2,89.1 L 341.4,87.8 L 338.6,86.6 L 335.8,85.3 L 332.9,84.1 L 330.1,82.9 L 327.3,81.7 L 324.4,80.6 L 321.6,79.4 L 318.8,78.4 L 315.9,77.3 L 313.1,76.3 L 310.3,75.3 L 307.4,74.3 L 304.6,73.4 L 301.7,72.6 L 298.9,71.7 L 296.0,70.9 L 293.1,70.2 L 290.3,69.5 L 287.4,68.8 L 284.6,68.1 L 281.7,67.6 L 278.8,67.0 L 276.0,66.5 L 273.1,66.0 L 270.2,65.6 L 267.3,65.3 L 264.5,64.9 L 261.6,64.6 L 258.7,64.4 L 255.9,64.2 L 253.0,64.1 L 250.1,64.0 L 247.3,63.9 L 244.4,63.9 L 241.5,63.9 L 238.7,64.0 L 235.8,64.1 L 233.0,64.2 L 230.1,64.4 L 227.3,64.7 L 224.4,65.0 L 221.6,65.3 L 218.7,65.6 L 215.9,66.0 L 213.0,66.4 L 210.2,66.9 L 207.4,67.4 L 204.5,67.9 L 201.7,68.5 L 198.9,69.1 L 196.1,69.7 L 193.3,70.4 L 190.4,71.1 L 187.6,71.8 L 184.8,72.5 L 182.0,73.2 L 179.2,74.0 L 176.4,74.8 L 173.7,75.6 L 170.9,76.5 L 168.1,77.3 L 165.3,78.2 L 162.5,79.1 L 159.7,80.0 L 157.0,80.9 L 154.2,81.8 L 151.4,82.7 L 148.7,83.6 L 145.9,84.6 L 143.1,85.5 L 140.4,86.4 L 137.6,87.4 L 134.9,88.3 L 132.1,89.3 L 129.4,90.2 L 126.6,91.1 L 123.9,92.1 L 121.1,93.0 L 118.4,93.9 L 115.7,94.8 L 112.9,95.7 L 110.2,96.6 L 107.5,97.4 L 104.7,98.3 L 102.0,99.1 L 99.3,99.9 L 96.5,100.7 L 93.8,101.5 L 91.1,102.3 L 88.4,103.0 L 85.6,103.7 L 82.9,104.4 L 80.2,105.1 L 77.5,105.8 L 74.7,106.4 L 72.0,107.0 L 69.3,107.6 L 66.6,108.1 L 63.8,108.7 L 61.1,109.2 L 58.4,109.7 L 55.6,110.1 L 52.9,110.5 L 50.2,110.9 L 47.4,111.3 L 44.7,111.6 L 42.0,112.0 L 39.2,112.3 L 36.5,112.5 L 33.8,112.8 L 31.0,113.0 L 28.3,113.2 L 25.5,113.4 L 22.8,113.6 L 20.0,113.9 Z" fill="#5E9C86" opacity="0.94"/>
<circle cx="380.0" cy="115.0" r="11" fill="#16150F"/>
<circle cx="380.0" cy="115.0" r="11" fill="none" stroke="#ECE7DB" stroke-width="1.8" opacity="0.9"/>
<circle cx="380.0" cy="115.0" r="3" fill="#ECE7DB" opacity="0.9"/>
</svg>