<svg viewBox="0 0 760 240" width="100%" height="auto" role="img" aria-label="Due onde speculari che si intrecciano attorno a un asse: le due voci del corpo" xmlns="http://www.w3.org/2000/svg">
<line x1="0" y1="120.0" x2="760" y2="120.0" stroke="#37342B" stroke-width="1"/>
<polyline points="0,120.0 4,121.1 8,122.4 12,123.6 16,125.0 20,126.3 24,127.8 28,129.3 32,130.8 36,132.3 40,133.9 44,135.5 48,137.2 52,138.8 56,140.4 60,142.1 64,143.7 68,145.3 72,146.9 76,148.5 80,150.1 84,151.6 88,153.0 92,154.4 96,155.7 100,157.0 104,158.2 108,159.3 112,160.3 116,161.2 120,162.1 124,162.8 128,163.4 132,163.9 136,164.3 140,164.5 144,164.7 148,164.7 152,164.6 156,164.3 160,163.9 164,163.4 168,162.7 172,161.9 176,161.0 180,159.9 184,158.7 188,157.4 192,155.9 196,154.3 200,152.6 204,150.7 208,148.7 212,146.7 216,144.5 220,142.2 224,139.8 228,137.3 232,134.8 236,132.1 240,129.4 244,126.7 248,123.8 252,121.0 256,118.1 260,115.1 264,112.2 268,109.2 272,106.3 276,103.3 280,100.4 284,97.4 288,94.6 292,91.7 296,88.9 300,86.2 304,83.6 308,81.0 312,78.5 316,76.1 320,73.9 324,71.7 328,69.6 332,67.7 336,65.9 340,64.2 344,62.7 348,61.3 352,60.1 356,59.0 360,58.1 364,57.3 368,56.8 372,56.3 376,56.1 380,56.0 384,56.1 388,56.3 392,56.8 396,57.3 400,58.1 404,59.0 408,60.1 412,61.3 416,62.7 420,64.2 424,65.9 428,67.7 432,69.6 436,71.7 440,73.9 444,76.1 448,78.5 452,81.0 456,83.6 460,86.2 464,88.9 468,91.7 472,94.6 476,97.4 480,100.4 484,103.3 488,106.3 492,109.2 496,112.2 500,115.1 504,118.1 508,121.0 512,123.8 516,126.7 520,129.4 524,132.1 528,134.8 532,137.3 536,139.8 540,142.2 544,144.5 548,146.7 552,148.7 556,150.7 560,152.6 564,154.3 568,155.9 572,157.4 576,158.7 580,159.9 584,161.0 588,161.9 592,162.7 596,163.4 600,163.9 604,164.3 608,164.6 612,164.7 616,164.7 620,164.5 624,164.3 628,163.9 632,163.4 636,162.8 640,162.1 644,161.2 648,160.3 652,159.3 656,158.2 660,157.0 664,155.7 668,154.4 672,153.0 676,151.6 680,150.1 684,148.5 688,146.9 692,145.3 696,143.7 700,142.1 704,140.4 708,138.8 712,137.2 716,135.5 720,133.9 724,132.3 728,130.8 732,129.3 736,127.8 740,126.3 744,125.0 748,123.6 752,122.4 756,121.1 760,120.0" fill="none" stroke="#D98A2B" stroke-width="2.4" opacity="0.95" stroke-linecap="round"/>
<polyline points="0,120.0 4,118.9 8,117.6 12,116.4 16,115.0 20,113.7 24,112.2 28,110.7 32,109.2 36,107.7 40,106.1 44,104.5 48,102.8 52,101.2 56,99.6 60,97.9 64,96.3 68,94.7 72,93.1 76,91.5 80,89.9 84,88.4 88,87.0 92,85.6 96,84.3 100,83.0 104,81.8 108,80.7 112,79.7 116,78.8 120,77.9 124,77.2 128,76.6 132,76.1 136,75.7 140,75.5 144,75.3 148,75.3 152,75.4 156,75.7 160,76.1 164,76.6 168,77.3 172,78.1 176,79.0 180,80.1 184,81.3 188,82.6 192,84.1 196,85.7 200,87.4 204,89.3 208,91.3 212,93.3 216,95.5 220,97.8 224,100.2 228,102.7 232,105.2 236,107.9 240,110.6 244,113.3 248,116.2 252,119.0 256,121.9 260,124.9 264,127.8 268,130.8 272,133.7 276,136.7 280,139.6 284,142.6 288,145.4 292,148.3 296,151.1 300,153.8 304,156.4 308,159.0 312,161.5 316,163.9 320,166.1 324,168.3 328,170.4 332,172.3 336,174.1 340,175.8 344,177.3 348,178.7 352,179.9 356,181.0 360,181.9 364,182.7 368,183.2 372,183.7 376,183.9 380,184.0 384,183.9 388,183.7 392,183.2 396,182.7 400,181.9 404,181.0 408,179.9 412,178.7 416,177.3 420,175.8 424,174.1 428,172.3 432,170.4 436,168.3 440,166.1 444,163.9 448,161.5 452,159.0 456,156.4 460,153.8 464,151.1 468,148.3 472,145.4 476,142.6 480,139.6 484,136.7 488,133.7 492,130.8 496,127.8 500,124.9 504,121.9 508,119.0 512,116.2 516,113.3 520,110.6 524,107.9 528,105.2 532,102.7 536,100.2 540,97.8 544,95.5 548,93.3 552,91.3 556,89.3 560,87.4 564,85.7 568,84.1 572,82.6 576,81.3 580,80.1 584,79.0 588,78.1 592,77.3 596,76.6 600,76.1 604,75.7 608,75.4 612,75.3 616,75.3 620,75.5 624,75.7 628,76.1 632,76.6 636,77.2 640,77.9 644,78.8 648,79.7 652,80.7 656,81.8 660,83.0 664,84.3 668,85.6 672,87.0 676,88.4 680,89.9 684,91.5 688,93.1 692,94.7 696,96.3 700,97.9 704,99.6 708,101.2 712,102.8 716,104.5 720,106.1 724,107.7 728,109.2 732,110.7 736,112.2 740,113.7 744,115.0 748,116.4 752,117.6 756,118.9 760,120.0" fill="none" stroke="#5E9C86" stroke-width="2.4" opacity="0.95" stroke-linecap="round"/>
<line x1="0" y1="120.0" x2="0" y2="120.0" stroke="#8A8578" stroke-width="1" opacity=".38"/>
<circle cx="0" cy="120.0" r="3.2" fill="#D98A2B"/><circle cx="0" cy="120.0" r="3.2" fill="#5E9C86"/>
<line x1="63" y1="143.3" x2="63" y2="96.7" stroke="#8A8578" stroke-width="1" opacity=".38"/>
<circle cx="63" cy="143.3" r="3.2" fill="#D98A2B"/><circle cx="63" cy="96.7" r="3.2" fill="#5E9C86"/>
<line x1="126" y1="163.1" x2="126" y2="76.9" stroke="#8A8578" stroke-width="1" opacity=".38"/>
<circle cx="126" cy="163.1" r="3.2" fill="#D98A2B"/><circle cx="126" cy="76.9" r="3.2" fill="#5E9C86"/>
<line x1="189" y1="157.0" x2="189" y2="83.0" stroke="#8A8578" stroke-width="1" opacity=".38"/>
<circle cx="189" cy="157.0" r="3.2" fill="#D98A2B"/><circle cx="189" cy="83.0" r="3.2" fill="#5E9C86"/>
<line x1="252" y1="121.0" x2="252" y2="119.0" stroke="#8A8578" stroke-width="1" opacity=".38"/>
<circle cx="252" cy="121.0" r="3.2" fill="#D98A2B"/><circle cx="252" cy="119.0" r="3.2" fill="#5E9C86"/>
<line x1="315" y1="76.7" x2="315" y2="163.3" stroke="#8A8578" stroke-width="1" opacity=".38"/>
<circle cx="315" cy="76.7" r="3.2" fill="#D98A2B"/><circle cx="315" cy="163.3" r="3.2" fill="#5E9C86"/>
<line x1="378" y1="56.0" x2="378" y2="184.0" stroke="#8A8578" stroke-width="1" opacity=".38"/>
<circle cx="378" cy="56.0" r="3.2" fill="#D98A2B"/><circle cx="378" cy="184.0" r="3.2" fill="#5E9C86"/>
<line x1="441" y1="74.4" x2="441" y2="165.6" stroke="#8A8578" stroke-width="1" opacity=".38"/>
<circle cx="441" cy="74.4" r="3.2" fill="#D98A2B"/><circle cx="441" cy="165.6" r="3.2" fill="#5E9C86"/>
<line x1="504" y1="118.1" x2="504" y2="121.9" stroke="#8A8578" stroke-width="1" opacity=".38"/>
<circle cx="504" cy="118.1" r="3.2" fill="#D98A2B"/><circle cx="504" cy="121.9" r="3.2" fill="#5E9C86"/>
<line x1="567" y1="155.5" x2="567" y2="84.5" stroke="#8A8578" stroke-width="1" opacity=".38"/>
<circle cx="567" cy="155.5" r="3.2" fill="#D98A2B"/><circle cx="567" cy="84.5" r="3.2" fill="#5E9C86"/>
<line x1="630" y1="163.7" x2="630" y2="76.3" stroke="#8A8578" stroke-width="1" opacity=".38"/>
<circle cx="630" cy="163.7" r="3.2" fill="#D98A2B"/><circle cx="630" cy="76.3" r="3.2" fill="#5E9C86"/>
<line x1="693" y1="144.9" x2="693" y2="95.1" stroke="#8A8578" stroke-width="1" opacity=".38"/>
<circle cx="693" cy="144.9" r="3.2" fill="#D98A2B"/><circle cx="693" cy="95.1" r="3.2" fill="#5E9C86"/>
<line x1="756" y1="121.1" x2="756" y2="118.9" stroke="#8A8578" stroke-width="1" opacity=".38"/>
<circle cx="756" cy="121.1" r="3.2" fill="#D98A2B"/><circle cx="756" cy="118.9" r="3.2" fill="#5E9C86"/>
<circle cx="380.0" cy="120.0" r="7" fill="#16150F" stroke="#ECE7DB" stroke-width="2"/>
</svg>