<svg xmlns="http://www.w3.org/2000/svg" viewBox="0 0 1200 540" role="img" aria-label="Due figure umane di profilo: a sinistra testa e spalle in avanti rispetto al filo a piombo, a destra la stessa figura allineata">
  <title>Postura di profilo: lo scarto dalla verticale</title>
  <rect width="1200" height="540" fill="#16150F"/>
  <line x1="120" y1="470" x2="1080" y2="470" stroke="#343027" stroke-width="3"/>
  <line x1="400" y1="466" x2="402" y2="374" stroke="#D98A2B" stroke-width="9" stroke-linecap="round"/>
  <line x1="402" y1="374" x2="400" y2="290" stroke="#D98A2B" stroke-width="9" stroke-linecap="round"/>
  <path d="M400 290 Q413 240 424 180" fill="none" stroke="#D98A2B" stroke-width="10" stroke-linecap="round"/>
  <line x1="424" y1="180" x2="444" y2="154" stroke="#D98A2B" stroke-width="8" stroke-linecap="round"/>
  <circle cx="444" cy="130" r="27" fill="#D98A2B"/>
  <path d="M424 180 q14 34 6 66 q-6 30 -2 56" fill="none" stroke="#D98A2B" stroke-width="7" stroke-linecap="round"/>
  <line x1="400" y1="466" x2="436" y2="466" stroke="#D98A2B" stroke-width="9" stroke-linecap="round"/>
  <circle cx="400" cy="290" r="7" fill="#16150F" stroke="#D98A2B" stroke-width="3"/>
  <circle cx="402" cy="374" r="7" fill="#16150F" stroke="#D98A2B" stroke-width="3"/>
  <circle cx="424" cy="180" r="7" fill="#16150F" stroke="#D98A2B" stroke-width="3"/>
  <line x1="400" y1="118" x2="400" y2="470" stroke="#787367" stroke-width="2" stroke-dasharray="7 9"/>
  <line x1="400" y1="130" x2="418" y2="130" stroke="#787367" stroke-width="2"/>
  <line x1="830" y1="466" x2="832" y2="374" stroke="#5E9C86" stroke-width="9" stroke-linecap="round"/>
  <line x1="832" y1="374" x2="830" y2="290" stroke="#5E9C86" stroke-width="9" stroke-linecap="round"/>
  <path d="M830 290 Q832 240 833 180" fill="none" stroke="#5E9C86" stroke-width="10" stroke-linecap="round"/>
  <line x1="833" y1="180" x2="836" y2="154" stroke="#5E9C86" stroke-width="8" stroke-linecap="round"/>
  <circle cx="836" cy="130" r="27" fill="#5E9C86"/>
  <path d="M833 180 q14 34 6 66 q-6 30 -2 56" fill="none" stroke="#5E9C86" stroke-width="7" stroke-linecap="round"/>
  <line x1="830" y1="466" x2="866" y2="466" stroke="#5E9C86" stroke-width="9" stroke-linecap="round"/>
  <circle cx="830" cy="290" r="7" fill="#16150F" stroke="#5E9C86" stroke-width="3"/>
  <circle cx="832" cy="374" r="7" fill="#16150F" stroke="#5E9C86" stroke-width="3"/>
  <circle cx="833" cy="180" r="7" fill="#16150F" stroke="#5E9C86" stroke-width="3"/>
  <line x1="830" y1="118" x2="830" y2="470" stroke="#787367" stroke-width="2" stroke-dasharray="7 9"/>
</svg>