<svg viewBox="0 0 760 200" width="100%" height="auto" role="img" aria-label="A sinistra una voce sola, a destra due voci che si rispondono" xmlns="http://www.w3.org/2000/svg">
<g transform="translate(0,0)">
<line x1="0" y1="100.0" x2="320" y2="100.0" stroke="#D2CBBA" stroke-width="1"/>
<polyline points="0,100.0 4,102.1 8,104.5 12,107.2 16,110.0 20,113.0 24,116.0 28,119.1 32,122.1 36,125.0 40,127.7 44,130.3 48,132.5 52,134.4 56,135.8 60,136.9 64,137.4 68,137.4 72,136.8 76,135.7 80,134.1 84,131.8 88,129.0 92,125.7 96,121.9 100,117.7 104,113.1 108,108.2 112,103.0 116,97.7 120,92.3 124,86.8 128,81.5 132,76.3 136,71.3 140,66.7 144,62.4 148,58.6 152,55.3 156,52.6 160,50.5 164,49.1 168,48.3 172,48.2 176,48.8 180,50.1 184,52.0 188,54.4 192,57.5 196,61.0 200,65.0 204,69.4 208,74.1 212,79.0 216,84.1 220,89.2 224,94.3 228,99.3 232,104.1 236,108.7 240,113.0 244,116.9 248,120.4 252,123.5 256,126.1 260,128.1 264,129.7 268,130.7 272,131.2 276,131.2 280,130.8 284,129.9 288,128.6 292,127.0 296,125.1 300,122.9 304,120.6 308,118.1 312,115.6 316,113.1 320,110.7" fill="none" stroke="#D98A2B" stroke-width="2.4" opacity="1" stroke-linecap="round"/>
<polyline points="0,100.0 4,99.7 8,99.3 12,98.9 16,98.5 20,98.0 24,97.5 28,97.1 32,96.6 36,96.2 40,95.7 44,95.3 48,95.0 52,94.7 56,94.5 60,94.3 64,94.2 68,94.2 72,94.3 76,94.5 80,94.8 84,95.1 88,95.5 92,96.0 96,96.6 100,97.3 104,98.0 108,98.7 112,99.5 116,100.4 120,101.2 124,102.0 128,102.9 132,103.7 136,104.4 140,105.1 144,105.8 148,106.4 152,106.9 156,107.3 160,107.6 164,107.8 168,107.9 172,108.0 176,107.9 180,107.7 184,107.4 188,107.0 192,106.5 196,106.0 200,105.4 204,104.7 208,104.0 212,103.2 216,102.5 220,101.7 224,100.9 228,100.1 232,99.4 236,98.7 240,98.0 244,97.4 248,96.9 252,96.4 256,96.0 260,95.7 264,95.4 268,95.3 272,95.2 276,95.2 280,95.3 284,95.4 288,95.6 292,95.9 296,96.1 300,96.5 304,96.8 308,97.2 312,97.6 316,98.0 320,98.4" fill="none" stroke="#5E9C86" stroke-width="2.4" opacity="0.22" stroke-linecap="round"/>
<text x="160" y="194" text-anchor="middle" font-family="ui-monospace,Menlo,monospace" font-size="12" letter-spacing="1.6" fill="#8A8578">UNA VOCE</text>
</g>
<line x1="380" y1="20" x2="380" y2="170" stroke="#D2CBBA" stroke-width="1" stroke-dasharray="4 6"/>
<g transform="translate(440,0)">
<line x1="0" y1="100.0" x2="320" y2="100.0" stroke="#D2CBBA" stroke-width="1"/>
<polyline points="0,100.0 4,102.1 8,104.5 12,107.2 16,110.0 20,113.0 24,116.0 28,119.1 32,122.1 36,125.0 40,127.7 44,130.3 48,132.5 52,134.4 56,135.8 60,136.9 64,137.4 68,137.4 72,136.8 76,135.7 80,134.1 84,131.8 88,129.0 92,125.7 96,121.9 100,117.7 104,113.1 108,108.2 112,103.0 116,97.7 120,92.3 124,86.8 128,81.5 132,76.3 136,71.3 140,66.7 144,62.4 148,58.6 152,55.3 156,52.6 160,50.5 164,49.1 168,48.3 172,48.2 176,48.8 180,50.1 184,52.0 188,54.4 192,57.5 196,61.0 200,65.0 204,69.4 208,74.1 212,79.0 216,84.1 220,89.2 224,94.3 228,99.3 232,104.1 236,108.7 240,113.0 244,116.9 248,120.4 252,123.5 256,126.1 260,128.1 264,129.7 268,130.7 272,131.2 276,131.2 280,130.8 284,129.9 288,128.6 292,127.0 296,125.1 300,122.9 304,120.6 308,118.1 312,115.6 316,113.1 320,110.7" fill="none" stroke="#D98A2B" stroke-width="2.4" opacity="1" stroke-linecap="round"/>
<polyline points="0,100.0 4,97.9 8,95.5 12,92.8 16,90.0 20,87.0 24,84.0 28,80.9 32,77.9 36,75.0 40,72.3 44,69.7 48,67.5 52,65.6 56,64.2 60,63.1 64,62.6 68,62.6 72,63.2 76,64.3 80,65.9 84,68.2 88,71.0 92,74.3 96,78.1 100,82.3 104,86.9 108,91.8 112,97.0 116,102.3 120,107.7 124,113.2 128,118.5 132,123.7 136,128.7 140,133.3 144,137.6 148,141.4 152,144.7 156,147.4 160,149.5 164,150.9 168,151.7 172,151.8 176,151.2 180,149.9 184,148.0 188,145.6 192,142.5 196,139.0 200,135.0 204,130.6 208,125.9 212,121.0 216,115.9 220,110.8 224,105.7 228,100.7 232,95.9 236,91.3 240,87.0 244,83.1 248,79.6 252,76.5 256,73.9 260,71.9 264,70.3 268,69.3 272,68.8 276,68.8 280,69.2 284,70.1 288,71.4 292,73.0 296,74.9 300,77.1 304,79.4 308,81.9 312,84.4 316,86.9 320,89.3" fill="none" stroke="#5E9C86" stroke-width="2.4" opacity="1" stroke-linecap="round"/>
<text x="160" y="194" text-anchor="middle" font-family="ui-monospace,Menlo,monospace" font-size="12" letter-spacing="1.6" fill="#8A8578">DUE VOCI</text>
</g>
</svg>