<svg xmlns="http://www.w3.org/2000/svg" viewBox="0 0 560 560" role="img" aria-label="Otto configurazioni disposte attorno a un centro vuoto: quattro di un lato in ambra, quattro dell'altro in verde">
  <title>Le otto configurazioni e il nono luogo</title>
    <circle cx="280" cy="280" r="196" fill="none" stroke="#37342B" stroke-width="1.4"/>
  <line x1="280.0" y1="240.0" x2="280.0" y2="130.0" stroke="#5E9C86" stroke-width="1.5" opacity=".4"/>
  <rect x="243.0" y="97.5" width="28.5" height="7" rx="3.5" fill="#5E9C86"/>
    <rect x="288.5" y="97.5" width="28.5" height="7" rx="3.5" fill="#5E9C86"/>
    <rect x="243.0" y="80.5" width="28.5" height="7" rx="3.5" fill="#5E9C86"/>
    <rect x="288.5" y="80.5" width="28.5" height="7" rx="3.5" fill="#5E9C86"/>
    <rect x="243.0" y="63.5" width="28.5" height="7" rx="3.5" fill="#5E9C86"/>
    <rect x="288.5" y="63.5" width="28.5" height="7" rx="3.5" fill="#5E9C86"/>
  <line x1="308.3" y1="251.7" x2="386.1" y2="173.9" stroke="#D98A2B" stroke-width="1.5" opacity=".4"/>
  <rect x="381.6" y="154.9" width="74" height="7" rx="3.5" fill="#D98A2B"/>
    <rect x="381.6" y="137.9" width="28.5" height="7" rx="3.5" fill="#D98A2B"/>
    <rect x="427.1" y="137.9" width="28.5" height="7" rx="3.5" fill="#D98A2B"/>
    <rect x="381.6" y="120.9" width="28.5" height="7" rx="3.5" fill="#D98A2B"/>
    <rect x="427.1" y="120.9" width="28.5" height="7" rx="3.5" fill="#D98A2B"/>
  <line x1="320.0" y1="280.0" x2="430.0" y2="280.0" stroke="#D98A2B" stroke-width="1.5" opacity=".4"/>
  <rect x="439.0" y="293.5" width="28.5" height="7" rx="3.5" fill="#D98A2B"/>
    <rect x="484.5" y="293.5" width="28.5" height="7" rx="3.5" fill="#D98A2B"/>
    <rect x="439.0" y="276.5" width="74" height="7" rx="3.5" fill="#D98A2B"/>
    <rect x="439.0" y="259.5" width="28.5" height="7" rx="3.5" fill="#D98A2B"/>
    <rect x="484.5" y="259.5" width="28.5" height="7" rx="3.5" fill="#D98A2B"/>
  <line x1="308.3" y1="308.3" x2="386.1" y2="386.1" stroke="#5E9C86" stroke-width="1.5" opacity=".4"/>
  <rect x="381.6" y="432.1" width="74" height="7" rx="3.5" fill="#5E9C86"/>
    <rect x="381.6" y="415.1" width="74" height="7" rx="3.5" fill="#5E9C86"/>
    <rect x="381.6" y="398.1" width="28.5" height="7" rx="3.5" fill="#5E9C86"/>
    <rect x="427.1" y="398.1" width="28.5" height="7" rx="3.5" fill="#5E9C86"/>
  <line x1="280.0" y1="320.0" x2="280.0" y2="430.0" stroke="#D98A2B" stroke-width="1.5" opacity=".4"/>
  <rect x="243.0" y="489.5" width="28.5" height="7" rx="3.5" fill="#D98A2B"/>
    <rect x="288.5" y="489.5" width="28.5" height="7" rx="3.5" fill="#D98A2B"/>
    <rect x="243.0" y="472.5" width="28.5" height="7" rx="3.5" fill="#D98A2B"/>
    <rect x="288.5" y="472.5" width="28.5" height="7" rx="3.5" fill="#D98A2B"/>
    <rect x="243.0" y="455.5" width="74" height="7" rx="3.5" fill="#D98A2B"/>
  <line x1="251.7" y1="308.3" x2="173.9" y2="386.1" stroke="#5E9C86" stroke-width="1.5" opacity=".4"/>
  <rect x="104.4" y="432.1" width="74" height="7" rx="3.5" fill="#5E9C86"/>
    <rect x="104.4" y="415.1" width="28.5" height="7" rx="3.5" fill="#5E9C86"/>
    <rect x="149.9" y="415.1" width="28.5" height="7" rx="3.5" fill="#5E9C86"/>
    <rect x="104.4" y="398.1" width="74" height="7" rx="3.5" fill="#5E9C86"/>
  <line x1="240.0" y1="280.0" x2="130.0" y2="280.0" stroke="#5E9C86" stroke-width="1.5" opacity=".4"/>
  <rect x="47.0" y="293.5" width="28.5" height="7" rx="3.5" fill="#5E9C86"/>
    <rect x="92.5" y="293.5" width="28.5" height="7" rx="3.5" fill="#5E9C86"/>
    <rect x="47.0" y="276.5" width="74" height="7" rx="3.5" fill="#5E9C86"/>
    <rect x="47.0" y="259.5" width="74" height="7" rx="3.5" fill="#5E9C86"/>
  <line x1="251.7" y1="251.7" x2="173.9" y2="173.9" stroke="#D98A2B" stroke-width="1.5" opacity=".4"/>
  <rect x="104.4" y="154.9" width="74" height="7" rx="3.5" fill="#D98A2B"/>
    <rect x="104.4" y="137.9" width="74" height="7" rx="3.5" fill="#D98A2B"/>
    <rect x="104.4" y="120.9" width="74" height="7" rx="3.5" fill="#D98A2B"/>
  <circle cx="280" cy="280" r="25" fill="none" stroke="#E8E3D6" stroke-width="2.4"/>
  <circle cx="280" cy="280" r="4.5" fill="#E8E3D6"/>
</svg>